<svg width="512" height="512" viewBox="0 0 512 512" xmlns="http://www.w3.org/2000/svg">
  <rect width="512" height="512" rx="100" fill="#3b82f6"/>
  <g transform="translate(0, 0) scale(1, 1)">
    <path d="M195.78 151.625C192.379 148.224 187.661 146.273 182.858 146.273C178.043 146.273 173.325 148.223 169.924 151.625C166.523 155.026 164.572 159.744 164.572 164.559C164.572 169.374 166.523 174.08 169.924 177.493C173.325 180.894 178.043 182.845 182.858 182.845C187.673 182.845 192.379 180.894 195.78 177.493C199.193 174.08 201.144 169.374 201.144 164.559C201.144 159.744 199.192 155.026 195.78 151.625Z" fill="white"/>
    <path d="M342.065 151.625C338.664 148.224 333.96 146.273 329.143 146.273C324.326 146.273 319.61 148.223 316.209 151.625C312.808 155.026 310.857 159.744 310.857 164.559C310.857 169.374 312.807 174.08 316.209 177.493C319.61 180.894 324.328 182.845 329.143 182.845C333.958 182.845 338.664 180.894 342.065 177.493C345.478 174.08 347.429 169.374 347.429 164.559C347.429 159.744 345.477 155.039 342.065 151.625Z" fill="white"/>
    <path d="M460.946 58.179C456.048 49.348 444.919 46.157 436.086 51.057L406.906 67.241C376.922 26.495 328.647 0 274.291 0C219.935 0 171.658 26.495 141.672 67.241L112.492 51.057C103.661 46.156 92.5299 49.348 87.6319 58.179C82.7329 67.01 85.9219 78.14 94.7539 83.039L123.394 98.924C114.607 119.044 109.72 141.243 109.719 164.566V164.568V164.569V164.57V365.713C109.719 422.089 152.462 468.663 207.243 474.746V493.713C207.243 503.812 215.43 511.999 225.529 511.999C235.628 511.999 243.815 503.812 243.815 493.713V475.427H304.767V493.713C304.767 503.812 312.954 511.999 323.053 511.999C333.152 511.999 341.339 503.812 341.339 493.713V475.427H420.577C430.676 475.427 438.863 467.24 438.863 457.141V164.571V164.569V164.567C438.863 141.244 433.975 119.045 425.186 98.924L453.826 83.039C462.658 78.14 465.846 67.01 460.946 58.179ZM274.291 36.571C309.998 36.571 342.331 51.275 365.571 74.938C359.656 73.752 353.582 73.142 347.412 73.142C347.408 73.142 347.41 73.142 347.406 73.142C317.559 73.142 291.007 87.534 274.316 109.741C271.728 106.303 268.891 103.016 265.794 99.919C248.523 82.65 225.557 73.14 201.127 73.141C201.123 73.141 201.125 73.141 201.121 73.141C194.915 73.141 188.854 73.77 182.991 74.954C206.232 51.282 238.573 36.571 274.291 36.571ZM402.289 438.857H219.432C179.101 438.857 146.289 406.045 146.289 365.714V267.883C176.485 305.22 222.643 329.143 274.29 329.143C325.936 329.143 372.093 305.222 402.289 267.885V438.857ZM402.289 164.573C402.289 235.152 344.868 292.573 274.29 292.573C203.71 292.573 146.29 235.153 146.289 164.574C146.293 134.322 170.892 109.712 201.125 109.714C215.786 109.713 229.569 115.42 239.935 125.783C250.21 136.057 255.901 149.69 255.993 164.205C255.991 164.328 255.975 164.448 255.975 164.572V201.143C255.975 211.242 264.162 219.429 274.261 219.429C284.36 219.429 292.547 211.242 292.547 201.143V165.114C292.553 164.934 292.575 164.757 292.575 164.574C292.579 134.322 317.178 109.712 347.411 109.714C362.072 109.713 375.855 115.42 386.221 125.783C396.582 136.142 402.288 149.916 402.289 164.566C402.289 164.569 402.289 164.57 402.289 164.573Z" fill="white"/>
  </g>
</svg>
