<svg width="192" height="192" viewBox="0 0 192 192" xmlns="http://www.w3.org/2000/svg">
  <rect width="192" height="192" rx="38" fill="#3b82f6"/>
  <g transform="translate(0, 0) scale(1, 1)">
    <path d="M73.4175 56.8594C72.1421 55.584 70.3729 54.8524 68.5718 54.8524C66.7661 54.8524 64.9969 55.5836 63.7215 56.8594C62.4461 58.1347 61.7145 59.904 61.7145 61.7096C61.7145 63.5152 62.4461 65.28 63.7215 66.5599C64.9969 67.8352 66.7661 68.5669 68.5718 68.5669C70.3774 68.5669 72.1421 67.8352 73.4175 66.5599C74.6974 65.28 75.429 63.5152 75.429 61.7096C75.429 59.904 74.697 58.1347 73.4175 56.8594Z" fill="white"/>
    <path d="M128.274 56.8594C126.999 55.584 125.235 54.8524 123.429 54.8524C121.622 54.8524 119.854 55.5836 118.578 56.8594C117.303 58.1347 116.571 59.904 116.571 61.7096C116.571 63.5152 117.303 65.28 118.578 66.5599C119.854 67.8352 121.623 68.5669 123.429 68.5669C125.234 68.5669 126.999 67.8352 128.274 66.5599C129.554 65.28 130.286 63.5152 130.286 61.7096C130.286 59.904 129.554 58.1396 128.274 56.8594Z" fill="white"/>
    <path d="M172.855 21.8171C171.018 18.5055 166.845 17.3089 163.532 19.1464L152.59 25.2154C141.346 9.93562 123.243 0 102.859 0C82.4756 0 64.3717 9.93562 53.127 25.2154L42.1845 19.1464C38.8729 17.3085 34.6987 18.5055 32.862 21.8171C31.0248 25.1287 32.2207 29.3025 35.5327 31.1396L46.2727 37.0965C42.9776 44.6415 41.145 52.9661 41.1446 61.7122V61.713V61.7134V61.7137V137.142C41.1446 158.283 57.1732 175.749 77.7161 178.03V185.142C77.7161 188.929 80.7862 192 84.5734 192C88.3605 192 91.4306 188.929 91.4306 185.142V178.285H114.288V185.142C114.288 188.929 117.358 192 121.145 192C124.932 192 128.002 188.929 128.002 185.142V178.285H157.716C161.503 178.285 164.574 175.215 164.574 171.428V61.7141V61.7134V61.7126C164.574 52.9665 162.741 44.6419 159.445 37.0965L170.185 31.1396C173.497 29.3025 174.692 25.1287 172.855 21.8171ZM102.859 13.7141C116.249 13.7141 128.374 19.2281 137.089 28.1018C134.871 27.657 132.593 27.4282 130.279 27.4282C130.278 27.4282 130.279 27.4282 130.277 27.4282C119.085 27.4282 109.128 32.8252 102.868 41.1529C101.898 39.8636 100.834 38.631 99.6727 37.4696C93.1961 30.9937 84.5839 27.4275 75.4226 27.4279C75.4211 27.4279 75.4219 27.4279 75.4204 27.4279C73.0931 27.4279 70.8202 27.6638 68.6216 28.1078C77.337 19.2308 89.4649 13.7141 102.859 13.7141ZM150.858 164.571H82.287C67.1629 164.571 54.8584 152.267 54.8584 137.143V100.456C66.1819 114.457 83.4911 123.429 102.859 123.429C122.226 123.429 139.535 114.458 150.858 100.457V164.571ZM150.858 61.7149C150.858 88.182 129.325 109.715 102.859 109.715C76.3912 109.715 54.8587 88.1824 54.8584 61.7153C54.8599 50.3707 64.0845 41.142 75.4219 41.1427C80.9197 41.1424 86.0884 43.2825 89.9756 47.1686C93.8287 51.0214 95.9629 56.1337 95.9974 61.5769C95.9966 61.623 95.9906 61.668 95.9906 61.7145V75.4286C95.9906 79.2158 99.0607 82.2859 102.848 82.2859C106.635 82.2859 109.705 79.2158 109.705 75.4286V61.9178C109.707 61.8503 109.716 61.7839 109.716 61.7153C109.717 50.3707 118.942 41.142 130.279 41.1427C135.777 41.1424 140.946 43.2825 144.833 47.1686C148.718 51.0532 150.858 56.2185 150.858 61.7122C150.858 61.7134 150.858 61.7138 150.858 61.7149Z" fill="white"/>
  </g>
</svg>
