<svg width="180" height="180" viewBox="0 0 180 180" fill="none" xmlns="http://www.w3.org/2000/svg">
<path d="M68.8289 53.3057C67.6332 52.11 65.9746 51.4241 64.286 51.4241C62.5932 51.4241 60.9346 52.1097 59.7389 53.3057C58.5432 54.5013 57.8573 56.16 57.8573 57.8528C57.8573 59.5456 58.5432 61.2 59.7389 62.3999C60.9346 63.5955 62.5932 64.2814 64.286 64.2814C65.9788 64.2814 67.6332 63.5955 68.8289 62.3999C70.0288 61.2 70.7147 59.5456 70.7147 57.8528C70.7147 56.16 70.0284 54.5013 68.8289 53.3057Z" fill="white"/>
<path d="M120.257 53.3057C119.062 52.11 117.408 51.4241 115.714 51.4241C114.021 51.4241 112.363 52.1097 111.167 53.3057C109.972 54.5013 109.286 56.16 109.286 57.8528C109.286 59.5456 109.971 61.2 111.167 62.3999C112.363 63.5955 114.022 64.2814 115.714 64.2814C117.407 64.2814 119.062 63.5955 120.257 62.3999C121.457 61.2 122.143 59.5456 122.143 57.8528C122.143 56.16 121.457 54.5059 120.257 53.3057Z" fill="white"/>
<path d="M155.622 20.4536C153.9 17.3489 149.987 16.2271 146.882 17.9497L136.623 23.6394C126.082 9.31465 109.11 0 90.0007 0C70.8912 0 53.9188 9.31465 43.3768 23.6394L33.1182 17.9497C30.0136 16.2267 26.1004 17.3489 24.3784 20.4536C22.6561 23.5582 23.7772 27.4711 26.8822 29.1934L36.951 34.778C33.8618 41.8514 32.1437 49.6557 32.1434 57.8552V57.8559V57.8563V57.8566V128.571C32.1434 148.391 47.1702 164.764 66.4291 166.903V173.571C66.4291 177.121 69.3074 180 72.8578 180C76.4083 180 79.2865 177.121 79.2865 173.571V167.142H100.715V173.571C100.715 177.121 103.593 180 107.144 180C110.694 180 113.572 177.121 113.572 173.571V167.142H141.429C144.98 167.142 147.858 164.264 147.858 160.714V57.857V57.8563V57.8556C147.858 49.6561 146.14 41.8518 143.05 34.778L153.118 29.1934C156.223 27.4711 157.344 23.5582 155.622 20.4536ZM90.0007 12.857C102.554 12.857 113.921 18.0264 122.091 26.3454C120.012 25.9284 117.876 25.714 115.707 25.714C115.706 25.714 115.707 25.714 115.705 25.714C105.212 25.714 95.8774 30.7737 90.0095 38.5808C89.0997 37.3721 88.1023 36.2166 87.0135 35.1278C80.9416 29.0566 72.8677 25.7133 64.279 25.7136C64.2776 25.7136 64.2783 25.7136 64.2769 25.7136C62.0951 25.7136 59.9643 25.9348 57.903 26.351C66.0737 18.0288 77.4436 12.857 90.0007 12.857ZM135 154.286H70.7143C56.5355 154.286 45 142.75 45 128.571V94.1776C55.6158 107.304 71.8432 115.714 90.0004 115.714C108.157 115.714 124.384 107.305 135 94.1783V154.286ZM135 57.8577C135 82.6706 114.813 102.858 90.0004 102.858C65.1871 102.858 45.0004 82.671 45 57.8581C45.0014 47.2226 53.6495 38.5706 64.2783 38.5713C69.4325 38.571 74.2781 40.5773 77.9224 44.2206C81.5347 47.8325 83.5355 52.6254 83.5678 57.7283C83.5671 57.7716 83.5615 57.8138 83.5615 57.8574V70.7143C83.5615 74.2648 86.4397 77.143 89.9902 77.143C93.5406 77.143 96.4188 74.2648 96.4188 70.7143V58.0479C96.4209 57.9846 96.4287 57.9224 96.4287 57.8581C96.4301 47.2226 105.078 38.5706 115.707 38.5713C120.861 38.571 125.707 40.5773 129.351 44.2206C132.994 47.8624 135 52.7048 135 57.8552C135 57.8563 135 57.8566 135 57.8577Z" fill="white"/>
</svg>
