<svg width="16" height="16" viewBox="0 0 16 16" fill="none" xmlns="http://www.w3.org/2000/svg">
<path d="M6.11813 4.73828C6.01184 4.632 5.86441 4.57103 5.71431 4.57103C5.56384 4.57103 5.41641 4.63197 5.31013 4.73828C5.20384 4.84456 5.14288 4.992 5.14288 5.14247C5.14288 5.29294 5.20384 5.44 5.31013 5.54665C5.41641 5.65294 5.56384 5.7139 5.71431 5.7139C5.86478 5.7139 6.01184 5.65294 6.11813 5.54665C6.22478 5.44 6.28575 5.29294 6.28575 5.14247C6.28575 4.992 6.22475 4.84456 6.11813 4.73828Z" fill="white"/>
<path d="M10.6895 4.73828C10.5832 4.632 10.4362 4.57103 10.2857 4.57103C10.1352 4.57103 9.98781 4.63197 9.88153 4.73828C9.77525 4.84456 9.71428 4.992 9.71428 5.14247C9.71428 5.29294 9.77522 5.44 9.88153 5.54665C9.98781 5.65294 10.1352 5.7139 10.2857 5.7139C10.4362 5.7139 10.5832 5.65294 10.6895 5.54665C10.7962 5.44 10.8572 5.29294 10.8572 5.14247C10.8572 4.992 10.7962 4.84497 10.6895 4.73828Z" fill="white"/>
<path d="M13.833 1.81809C13.68 1.54212 13.3322 1.44241 13.0562 1.59553L12.1443 2.10128C11.2073 0.827969 9.69869 0 8.00006 0C6.30144 0 4.79278 0.827969 3.85572 2.10128L2.94384 1.59553C2.66788 1.44237 2.32003 1.54212 2.16697 1.81809C2.01388 2.09406 2.11353 2.44188 2.38953 2.59497L3.28453 3.09138C3.00994 3.72013 2.85722 4.41384 2.85719 5.14269V5.14275V5.14278V5.14281V11.4285C2.85719 13.1903 4.19291 14.6457 5.90481 14.8358V15.4285C5.90481 15.7441 6.16066 16 6.47625 16C6.79185 16 7.04769 15.7441 7.04769 15.4285V14.8571H8.95244V15.4285C8.95244 15.7441 9.20828 16 9.52388 16C9.83947 16 10.0953 15.7441 10.0953 15.4285V14.8571H12.5715C12.8871 14.8571 13.1429 14.6012 13.1429 14.2857V5.14284V5.14278V5.14272C13.1429 4.41387 12.9902 3.72016 12.7155 3.09138L13.6105 2.59497C13.8865 2.44188 13.9862 2.09406 13.833 1.81809ZM8.00006 1.14284C9.11591 1.14284 10.1263 1.60234 10.8526 2.34181C10.6677 2.30475 10.4779 2.28569 10.2851 2.28569C10.285 2.28569 10.285 2.28569 10.2849 2.28569C9.35219 2.28569 8.52244 2.73544 8.00085 3.42941C7.91997 3.32197 7.83131 3.21925 7.73453 3.12247C7.19481 2.58281 6.47713 2.28562 5.71369 2.28566C5.71356 2.28566 5.71363 2.28566 5.7135 2.28566C5.51956 2.28566 5.33016 2.30531 5.14694 2.34231C5.87322 1.60256 6.88388 1.14284 8.00006 1.14284ZM12 13.7143H6.28572C5.02538 13.7143 4 12.6889 4 11.4286V8.37134C4.94363 9.53812 6.38606 10.2857 8.00003 10.2857C9.61397 10.2857 11.0564 9.53819 12 8.37141V13.7143ZM12 5.14291C12 7.3485 10.2056 9.14291 8.00003 9.14291C5.79441 9.14291 4.00003 7.34853 4 5.14294C4.00013 4.19756 4.76884 3.4285 5.71363 3.42856C6.17178 3.42853 6.6025 3.60687 6.92644 3.93072C7.24753 4.25178 7.42538 4.67781 7.42825 5.13141C7.42819 5.13525 7.42769 5.139 7.42769 5.14288V6.28572C7.42769 6.60131 7.68353 6.85716 7.99913 6.85716C8.31472 6.85716 8.57056 6.60131 8.57056 6.28572V5.15981C8.57075 5.15419 8.57144 5.14866 8.57144 5.14294C8.57156 4.19756 9.34028 3.4285 10.2851 3.42856C10.7432 3.42853 11.1739 3.60687 11.4979 3.93072C11.8217 4.25444 12 4.68487 12 5.14269C12 5.14278 12 5.14281 12 5.14291Z" fill="white"/>
</svg>
