<svg width="44" height="44" viewBox="0 0 44 44" fill="none" xmlns="http://www.w3.org/2000/svg">
<rect width="44" height="44" fill="#3750F9"/>
<path d="M18.2363 15.4766C18.0237 15.264 17.7288 15.1421 17.4286 15.1421C17.1277 15.1421 16.8328 15.264 16.6203 15.4766C16.4077 15.6892 16.2858 15.984 16.2858 16.285C16.2858 16.5859 16.4077 16.88 16.6203 17.0933C16.8328 17.3059 17.1277 17.4278 17.4286 17.4278C17.7296 17.4278 18.0237 17.3059 18.2363 17.0933C18.4496 16.88 18.5715 16.5859 18.5715 16.285C18.5715 15.984 18.4495 15.6892 18.2363 15.4766Z" fill="white"/>
<path d="M27.3791 15.4766C27.1665 15.264 26.8725 15.1421 26.5714 15.1421C26.2704 15.1421 25.9756 15.264 25.7631 15.4766C25.5505 15.6892 25.4286 15.984 25.4286 16.285C25.4286 16.5859 25.5504 16.88 25.7631 17.0933C25.9756 17.3059 26.2705 17.4278 26.5714 17.4278C26.8724 17.4278 27.1665 17.3059 27.3791 17.0933C27.5924 16.88 27.7143 16.5859 27.7143 16.285C27.7143 15.984 27.5923 15.69 27.3791 15.4766Z" fill="white"/>
<path d="M33.6661 9.63619C33.3599 9.08425 32.6644 8.88481 32.1123 9.19106L30.2886 10.2026C28.4146 7.65594 25.3974 6 22.0001 6C18.6029 6 15.5856 7.65594 13.7114 10.2026L11.8877 9.19106C11.3358 8.88475 10.6401 9.08425 10.3339 9.63619C10.0278 10.1881 10.2271 10.8838 10.7791 11.1899L12.5691 12.1828C12.0199 13.4403 11.7144 14.8277 11.7144 16.2854V16.2855V16.2856V16.2856V28.8571C11.7144 32.3806 14.3858 35.2914 17.8096 35.6716V36.8571C17.8096 37.4882 18.3213 37.9999 18.9525 37.9999C19.5837 37.9999 20.0954 37.4882 20.0954 36.8571V35.7142H23.9049V36.8571C23.9049 37.4882 24.4166 37.9999 25.0478 37.9999C25.6789 37.9999 26.1906 37.4882 26.1906 36.8571V35.7142H31.143C31.7742 35.7142 32.2859 35.2025 32.2859 34.5713V16.2857V16.2856V16.2854C32.2859 14.8277 31.9804 13.4403 31.4311 12.1828L33.2211 11.1899C33.7731 10.8838 33.9723 10.1881 33.6661 9.63619ZM22.0001 8.28569C24.2318 8.28569 26.2526 9.20469 27.7051 10.6836C27.3354 10.6095 26.9558 10.5714 26.5702 10.5714C26.5699 10.5714 26.5701 10.5714 26.5698 10.5714C24.7044 10.5714 23.0449 11.4709 22.0017 12.8588C21.8399 12.6439 21.6626 12.4385 21.4691 12.2449C20.3896 11.1656 18.9543 10.5712 17.4274 10.5713C17.4271 10.5713 17.4273 10.5713 17.427 10.5713C17.0391 10.5713 16.6603 10.6106 16.2939 10.6846C17.7464 9.20513 19.7678 8.28569 22.0001 8.28569ZM30 33.4286H18.5714C16.0508 33.4286 14 31.3778 14 28.8571V22.7427C15.8873 25.0762 18.7721 26.5714 22.0001 26.5714C25.2279 26.5714 28.1128 25.0764 30 22.7428V33.4286ZM30 16.2858C30 20.697 26.4112 24.2858 22.0001 24.2858C17.5888 24.2858 14.0001 20.6971 14 16.2859C14.0003 14.3951 15.5377 12.857 17.4273 12.8571C18.3436 12.8571 19.205 13.2137 19.8529 13.8614C20.4951 14.5036 20.8508 15.3556 20.8565 16.2628C20.8564 16.2705 20.8554 16.278 20.8554 16.2858V18.5714C20.8554 19.2026 21.3671 19.7143 21.9983 19.7143C22.6294 19.7143 23.1411 19.2026 23.1411 18.5714V16.3196C23.1415 16.3084 23.1429 16.2973 23.1429 16.2859C23.1431 14.3951 24.6806 12.857 26.5701 12.8571C27.4864 12.8571 28.3479 13.2137 28.9958 13.8614C29.6433 14.5089 29.9999 15.3697 30 16.2854C30 16.2856 30 16.2856 30 16.2858Z" fill="white"/>
</svg>
